# xmcd
#
# Track frame offsets: 
#        150
#        18425
#        35404
#        54236
#        69516
#        86028
#        101649
#        117381
#        132695
#        150691
#        165796
#        180198
#        198302
#        213066
#        232745
#        248979
#        267271
#        284020
#        302525
#        320172
#
# Disc length: 4440 seconds
#
# Revision: 0
# Processed by: cddbd v1.5.2PL0 Copyright (c) Steve Scherf et al.
# Submitted via: ExactAudioCopy v0.99pb4
#
DISCID=0f115614
DTITLE=Various Artist - HP201010
DYEAR=2010
DGENRE=Top 40
TTITLE0=Landon Pigg - Take A Chance [Radio Edit]
TTITLE1=Matisse - Better Than Her
TTITLE2=Spose - I'm Awesome [Xtra Clean]
TTITLE3=Vita Chambers - Young Money [Main]
TTITLE4=John Brown - Imma Love You Right
TTITLE5=Sentury feat Chamillionaire - Lose Control
TTITLE6=Mann feat Jason Derülo - Text [Super Clean Edit]
TTITLE7=2 Pistols feat Jason Derülo - Redonkulous [Clean]
TTITLE8=Cypress Hill feat Pitbull and Marc Aanthony - Armada Latina
TTITLE9=Bucky Covington - A Father's Love (The Only Way He Knew How)
TTITLE10=Jaron And The Long Road To Love - Pray For You
TTITLE11=Eli Young Band - Guinevere [Radio Edit]
TTITLE12=Jerrod Niemann - Lover, Lover
TTITLE13=Slash feat Andrew Stockdale of Wolfmother - By The Sword [Rad
TTITLE13=io Edit]
TTITLE14=Dirty Heads feat Rome from Sublime - Lay Me Down
TTITLE15=Bullet For My Valentine - Your Betrayal [Radio Edit]
TTITLE16=Five Finger Death Punch - Walk Away
TTITLE17=Three 6 Mafia feat Flo Rida, Sean Kingston, and DJ Tiësto - F
TTITLE17=eel It [Mike Rizzo Funk Generation Radio Edit]
TTITLE18=Jennifer Lopez - Louboutins [Jody Den Broeder and Warren Rigg
TTITLE18=Radio Edit]
TTITLE19=David Crowder Band - Oh Happiness [Radio Edit]
EXTD=
EXTT0=
EXTT1=
EXTT2=
EXTT3=
EXTT4=
EXTT5=
EXTT6=
EXTT7=
EXTT8=
EXTT9=
EXTT10=
EXTT11=
EXTT12=
EXTT13=
EXTT14=
EXTT15=
EXTT16=
EXTT17=
EXTT18=
EXTT19=
PLAYORDER=
